<?xml version="1.0" encoding="UTF-8"?>
<svg id="Layer_1" xmlns="http://www.w3.org/2000/svg" version="1.1" viewBox="0 0 250 78.7">
  <path d="M221.3,27.1c-2-3.4-4.7-6-8.2-7.8-3.4-1.8-7.3-2.7-11.6-2.7s-8.4,1-11.9,2.9c-3.5,1.9-6.3,4.6-8.3,8-2,3.4-3,7.3-3,11.7s1,8.2,3.1,11.6c2.1,3.4,5,6.1,8.7,8,3.8,2,8.1,2.9,13.1,2.9s7.4-.6,10.5-1.8c3-1.2,5.6-3,7.6-5.2l-6.7-7.3c-1.5,1.4-3.1,2.5-4.8,3.2-1.8.7-3.8,1.1-6.1,1.1s-4.9-.5-6.8-1.4c-1.9-.9-3.4-2.3-4.5-4.1-.6-1-1-2.1-1.2-3.2h33.1c0-.5.1-1.1.2-1.7,0-.6,0-1.2,0-1.7,0-4.7-1-8.8-3-12.2ZM195.9,27.5c1.7-.9,3.6-1.4,5.7-1.4s4.1.5,5.7,1.4c1.6.9,2.9,2.3,3.8,3.9.6,1.1,1,2.4,1.2,3.7h-21.5c.2-1.4.6-2.6,1.2-3.7.9-1.7,2.2-3,3.9-4Z" fill="#010101"/>
  <path d="M230.6,61.4V3.7h12.7v57.6h-12.7Z" fill="#010101"/>
  <circle cx="64.8" cy="10.3" r="6.3" fill="#010101"/>
  <rect x="58.1" y="23.1" width="13.5" height="37.8" rx="6.7" ry="6.7" transform="translate(129.6 84.1) rotate(-180)" fill="#010101"/>
  <path d="M48.8,27.3c-2-3.4-4.7-6-8.1-7.8-3.4-1.8-7.2-2.7-11.5-2.7s-8.1.9-11.5,2.7c-3.4,1.8-6.1,4.4-8.1,7.8-1.7,3-2.7,6.4-2.9,10.2,0,.2,0,.5,0,.8v30.1c0,3.6,3,6.6,6.6,6.6h0c3.6,0,6.6-3,6.6-6.6v-8.7c2.8,1.1,5.8,1.6,9.1,1.6s8.1-.9,11.5-2.7c3.4-1.8,6.2-4.4,8.2-7.8,2-3.4,3-7.3,3-11.8s-1-8.4-3-11.8ZM35.5,47.1c-1.8,1.9-3.9,2.8-6.5,2.8s-4.6-.9-6.3-2.8c-1.7-1.9-2.5-4.5-2.5-8s.9-6.2,2.6-8c1.7-1.8,3.9-2.8,6.4-2.8s4.7.9,6.4,2.8c1.7,1.9,2.6,4.5,2.6,8s-.9,6.1-2.7,8Z" fill="#010101"/>
  <path d="M114.9,61.6c-3.7,0-6.6-3-6.6-6.6v-14.4c0-5.3-3.9-9.7-8.6-9.7s-8.6,4.3-8.6,9.7v14.4c0,3.7-3,6.6-6.6,6.6s-6.6-3-6.6-6.6v-14.4c0-12.6,9.8-22.9,21.8-22.9s21.8,10.3,21.8,22.9v14.4c0,3.7-3,6.6-6.6,6.6Z" fill="#010101"/>
  <polygon points="140.3 48.8 140.3 29.7 147 29.7 147 42.2 152.8 42.2 152.8 48.8 140.3 48.8" fill="#010101"/>
  <rect x="127.9" y="17.2" width="12.5" height="12.5" fill="#010101"/>
  <rect x="127.9" y="48.8" width="12.5" height="12.5" fill="#010101"/>
  <rect x="159.4" y="17.2" width="12.5" height="12.5" fill="#4ebbb8"/>
  <rect x="159.4" y="48.8" width="12.5" height="12.5" fill="#f59b1b"/>
  <rect x="147" y="29.7" width="12.5" height="12.5" fill="#5e4595"/>
  <rect x="152.8" y="42.2" width="6.6" height="6.6" fill="#353535"/>
</svg>
